<svg fill="none" height="44" viewBox="0 0 44 44" width="44" xmlns="http://www.w3.org/2000/svg" xmlns:xlink="http://www.w3.org/1999/xlink"><clipPath id="a"><path d="m9 13h26.15v18.98h-26.15z"/></clipPath><path d="m0 0h44v44h-44z" fill="#fff"/><g clip-path="url(#a)"><g fill="#673de6"><path clip-rule="evenodd" d="m35.1501 29.57v2.4h-3.34v-3.26c0-.95-.44-1.74-1.11-2.39.47.11.94.25 1.39.41.22.08.44.17.66.26.17.08.34.16.49.24.14.07.28.15.41.23.1.06.2.13.3.2.06.04.12.09.18.14.17.13.32.27.45.42.06.07.12.14.17.21.02.02.03.03.03.05.03.04.06.08.08.12.06.09.11.19.15.29.09.22.14.44.14.68z" fill-rule="evenodd"/><path d="m31.81 31.86h-.27v.11h.27z"/><path clip-rule="evenodd" d="m31.3701 20.54c0 1.89-1.52 3.41-3.4 3.41-.15 0-.3-.01-.45-.03-.04-.01-.08-.01-.12-.02-.05 0-.09-.01-.13-.02-.09-.01-.17-.03-.25-.06-.03 0-.06-.01-.09-.02-.03 0-.05 0-.07-.02l.04-.04s.03-.04.05-.05c.04-.04.08-.07.12-.11h.01c.86-.87 1.39-2.07 1.39-3.38 0-1.15-.41-2.2-1.08-3.02.19-.03.38-.05.58-.05 1.88 0 3.4 1.52 3.4 3.41z" fill-rule="evenodd"/><path d="m21.2001 16.17c-.67.42-1.22.99-1.61 1.68-.58-.27-1.24-.42-1.95-.41-2.52.02-4.57 2.07-4.54 4.6.01 2.09 1.5 3.9 3.55 4.35.02.01.05.01.07.01-.55.55-.93 1.2-1.01 1.95v.02s-.05-.01-.08-.02c-.56-.19-1.1-.43-1.6-.76 0 0 0-.01 0-.02-.06-.0267-.11-.0167-.15.03 0 0-.1.09-.15.12-.35.35-.71.68-1.06 1.03-.19.18-.41.18-.61 0-.49-.5-.99-.99-1.5-1.49-.17-.18-.17-.4 0-.58.26-.26.53-.53.79-.79.15-.14.29-.28.44-.42.0533-.0533.06-.1167.02-.19-.17-.28-.31-.56-.43-.86-.12-.32-.23-.64-.29-.96-.01-.05-.02-.09-.03-.14 0-.06-.05-.08-.09-.08h-.55c-.34.01-.66004 0-.98004 0h-.1c-.18-.02-.32-.18-.33-.37-.01-.16 0-.32 0-.48-.01-.52 0-1.05.01-1.58 0-.23.13-.38.37-.39h.04c.5-.01.97004-.01 1.47004-.02.04-.01.09 0 .13-.01.0666 0 .11-.0333.13-.1.07-.28.14-.56.26-.82.13-.36.32-.69.52-1.01.02-.03.04-.05.05-.08.02-.03.03-.06-.01-.09-.02-.02-.03-.03-.06-.05-.42-.44-.85-.87-1.27-1.32-.03-.02-.06-.03-.07-.06-.16-.18-.15-.4.02-.58.13-.13.26-.27.41-.41.37-.37.72-.73 1.08-1.07.06-.07.13-.13.22-.15.13-.03.26.02.35.1l.78.75c.23.23.47.45.69.66.0533.0467.1066.0533.16.02.36-.21.75-.4 1.14-.54.27-.1.58-.17.86-.24.02-.01.04-.01.06-.01.06-.02.09-.06.09-.12.01-.33 0-.65 0-.98.01-.31 0-.6.01-.9 0-.02 0-.04.01-.05.01-.18.14-.3.31-.33.05-.01.08-.01.12 0 .69 0 1.37-.01 2.05-.01.09 0 .16 0 .23.06.11.06.17.16.18.28v.03c0 .35-.01.68-.01 1.03-.01.3-.01.6 0 .91-.0067.06.0166.0967.07.11.25.04.47.12.69.19.34.12.67.3.98.48.01.01.02.02.04.03.01.01.02.02.03.02h.01s.02.02.03.02c0 0 .0066.0033.02.01z"/></g><path d="m31.81 31.86h-.27v.11h.27z" fill="#fff"/><path d="m24.8501 16.63-.24-.06c-.28-.08-.57-.12-.89-.12-1.36 0-2.61.73-3.26 1.92-.01.01-.01.02-.02.02-.01.01-.01.02-.01.02-.01.02-.02.04-.03.05-.29.54-.43 1.12-.43 1.74 0 1.34.72 2.59 1.87 3.25.04.02.07.04.11.05.54.3 1.15.46 1.77.46.12 0 .26 0 .39-.02.06-.01.13-.02.18-.03.22-.03.46-.08.67-.17.33-.11.65-.27.93-.47.3-.22.57-.48.8-.77.18-.23.34-.49.46-.77.21-.49.32-1 .32-1.53 0-1.63-1.09-3.1-2.62-3.57zm1.6 3.79c-.01.31-.09.62-.22.91-.3.69-.89 1.22-1.61 1.47-.15.06-.3.1-.49.12-.11.03-.23.04-.41.04-.48 0-.96-.13-1.38-.37-.05-.03-.1-.06-.15-.1-.75-.51-1.22-1.37-1.22-2.29 0-.39.08-.76.23-1.11.03-.06.05-.11.08-.16.48-.91 1.41-1.48 2.44-1.48.12 0 .23.01.33.02.1.02.2.04.31.07 1.22.28 2.11 1.4 2.11 2.66 0 .07 0 .15-.02.22z" fill="#673de6"/><path d="m23.7201 24.98h-.05c-.58 0-1.28.07-2 .22-.37.07-.75.16-1.12.27-.81.23-1.61.57-2.26 1-.81.54-1.41 1.25-1.54 2.12-.02.13-.03.26-.03.39v3h14v-3c0-2.83-4.56-4-7-4zm6 6h-12v-2c0-1.97 3.9-3 6-3h.1c2.11.03 5.9 1.06 5.9 3z" fill="#673de6"/></g></svg>