<svg xmlns="http://www.w3.org/2000/svg" fill="#673de6" viewBox="0 0 44 44" width="44" height="44"><path d="M33.956 27.94v2.97c0 1.155-.931 2.09-2.08 2.09h-2.952v-2.09h2.95v-2.97h2.082Zm0-6.145h-2.082v5.215h2.082v-5.215Zm0-3.921v2.991h-2.082v-2.97h-2.95v-2.09h2.972c1.137 0 2.06.925 2.06 2.07ZM28 30.91h-5.19V33H28v-2.09Zm0-15.105h-5.19v2.09H28v-2.09Zm.228 10.031L25.42 23.08a.08.08 0 0 1 0-.112l1.485-1.461c.044-.04.028-.109-.027-.13l-4.794-1.744-3.04-1.106h-.027a.079.079 0 0 0-.078.078c0 .008 0 .02.005.03l1.736 4.404 1.325 3.357a.08.08 0 0 0 .076.049c.02 0 .041-.008.057-.025l1.282-1.34a.079.079 0 0 1 .057-.024c.022 0 .044.009.057.025l2.713 2.836a.083.083 0 0 0 .117 0l1.867-1.968a.08.08 0 0 0-.003-.112v-.002Zm-6.343 5.074V33h-2.938a2.096 2.096 0 0 1-2.09-2.102V27.94h2.082v2.97h2.946Z"/><path d="M18.938 17.988a.566.566 0 0 1 .291.033l2.855 1.038v-6.554c0-.833-.678-1.505-1.51-1.505h-9.061c-.835 0-1.513.672-1.513 1.505v9.03a1.51 1.51 0 0 0 1.513 1.508h5.344v3.967h2.081v-3.967h1.16l-1.16-2.937-.503-1.275a.631.631 0 0 1 .065-.577.618.618 0 0 1 .438-.266Z"/></svg>